<svg xmlns="http://www.w3.org/2000/svg" width="595" height="77" fill="none"><path fill="url(#a)" d="M0 28s13.26-14.175 41.395-17.54C96.56 3.864 94.64 70.216 150.056 75.695c49.398 4.884 69.651-30.714 119.529-31.48 44.581-.684 65.501 18.145 109.75 21.998 78.853 6.867 126.595-41.427 201.026-21.997C594 47.776 595 49 595 49V39s-1-1.224-14.638-4.785C505.931 14.787 458.189 63.08 379.336 56.213c-44.249-3.853-65.169-22.682-109.75-21.998-49.878.766-70.131 36.364-119.529 31.48C94.641 60.216 96.561-6.135 41.395.46 13.26 3.824 0 18 0 18v10Z"/><defs><linearGradient id="a" x1="-20" x2="626" y1="67.5" y2="67.5" gradientUnits="userSpaceOnUse"><stop stop-color="#CFA7EC"/><stop offset="1" stop-color="#F8B28B"/></linearGradient></defs></svg>