<svg width="1440" height="113" viewBox="0 0 1440 113" fill="none" xmlns="http://www.w3.org/2000/svg">
<path d="M1440 18C1440 18 1407.91 3.82447 1339.82 0.460532C1206.31 -6.13556 1210.95 60.2161 1076.84 65.6949C957.286 70.5787 908.27 34.9811 787.556 34.2155C679.663 33.5313 629.033 52.3596 521.944 56.2132C331.106 63.0804 215.561 14.7861 35.4271 34.2155C2.42017 37.7757 0 39 0 39V113H1440V18Z" fill="url(#paint0_linear_23_1147)"/>
<path d="M1440 29C1440 29 1393.03 12.8245 1328.74 9.46053C1202.67 2.86444 1207.05 69.2161 1080.41 74.6949C967.523 79.5787 921.238 43.9811 807.251 43.2155C705.371 42.5313 657.562 61.3596 556.441 65.2132C376.239 72.0804 267.132 23.7861 97.0369 43.2155C53.9695 48.135 0 58 0 58V113H1440V29Z" fill="#1C1C2B"/>
<defs>
<linearGradient id="paint0_linear_23_1147" x1="1488.4" y1="57.5" x2="-75.0242" y2="57.5" gradientUnits="userSpaceOnUse">
<stop stop-color="#CFA7EC"/>
<stop offset="1" stop-color="#F8B28B"/>
</linearGradient>
</defs>
</svg>
