<svg xmlns="http://www.w3.org/2000/svg" width="1440" height="113" fill="none"><path fill="url(#a)" d="M1440 18S1407.91 3.824 1339.82.46c-133.51-6.596-128.87 59.756-262.98 65.235-119.554 4.884-168.57-30.714-289.284-31.48-107.893-.684-158.523 18.145-265.612 21.998C331.106 63.08 215.561 14.786 35.427 34.215 2.42 37.776 0 39 0 39v74h1440V18Z"/><path fill="#1C1C2B" d="M1440 29s-46.97-16.175-111.26-19.54c-126.07-6.596-121.69 59.756-248.33 65.235-112.887 4.884-159.172-30.714-273.159-31.48-101.88-.684-149.689 18.145-250.81 21.998C376.239 72.08 267.132 23.786 97.037 43.216 53.969 48.134 0 58 0 58v55h1440V29Z"/><defs><linearGradient id="a" x1="1488.4" x2="-75.024" y1="57.5" y2="57.5" gradientUnits="userSpaceOnUse"><stop stop-color="#CFA7EC"/><stop offset="1" stop-color="#F8B28B"/></linearGradient></defs></svg>
